<?xml version="1.0" encoding="UTF-8" standalone="no"?>
<!DOCTYPE svg PUBLIC "-//W3C//DTD SVG 1.1//EN" "http://www.w3.org/Graphics/SVG/1.1/DTD/svg11.dtd">
<svg width="100%" height="100%" viewBox="0 0 86 86" version="1.1" xmlns="http://www.w3.org/2000/svg" xmlns:xlink="http://www.w3.org/1999/xlink" xml:space="preserve" xmlns:serif="http://www.serif.com/" style="fill-rule:evenodd;clip-rule:evenodd;stroke-linejoin:round;stroke-miterlimit:2;">
    <g id="Layer_1">
        <circle cx="43" cy="43" r="42.7" style="fill:url(#_Linear1);"/>
        <g>
            <circle cx="42.972" cy="42.811" r="32.025" style="fill:rgb(74,227,234);fill-opacity:0.8;"/>
        </g>
        <g id="icon_34_" transform="matrix(0.0895285,0,0,0.0895285,-1.28551,-2.6483)">
            <g>
                <g>
                    <rect x="585.208" y="713.978" width="126.256" height="11.71" style="fill:white;"/>
                    <rect x="281.963" y="713.978" width="126.269" height="11.71" style="fill:white;"/>
                    <path d="M486.07,666.161L507.37,666.161L507.37,702.832L575.483,702.832L575.483,738.377L417.981,738.377L417.981,702.832L486.07,702.832L486.07,666.161Z" style="fill:rgb(44,147,230);fill-rule:nonzero;"/>
                </g>
                <g>
                    <path d="M332.506,382.121L660.976,382.121C691.474,382.121 716.204,357.342 716.204,326.845C716.204,296.335 691.475,271.63 660.976,271.63L332.506,271.63C301.964,271.63 277.222,296.335 277.222,326.845C277.222,357.342 301.965,382.121 332.506,382.121ZM339.726,307.946C350.174,307.946 358.65,316.421 358.65,326.845C358.65,337.293 350.174,345.72 339.726,345.72C329.321,345.72 320.815,337.293 320.815,326.845C320.814,316.421 329.321,307.946 339.726,307.946Z" style="fill:white;fill-rule:nonzero;"/>
                    <path d="M499.145,444.661C506.543,434.349 515.349,425.089 525.338,417.152C531.138,412.521 537.311,408.431 543.723,404.818L332.506,404.818C301.964,404.818 277.222,429.523 277.222,460.033C277.222,490.52 301.964,515.262 332.506,515.262L473.852,515.262C474.385,507.362 475.554,499.461 477.483,491.646C481.63,474.78 488.918,458.968 499.145,444.661ZM339.726,478.933C329.321,478.933 320.815,470.481 320.815,460.033C320.815,449.61 329.321,441.134 339.726,441.134C350.174,441.134 358.65,449.61 358.65,460.033C358.65,470.48 350.174,478.933 339.726,478.933Z" style="fill:white;fill-rule:nonzero;"/>
                    <path d="M500.339,605.996C494.215,597.655 488.967,588.408 484.729,578.511C479.1,565.406 475.647,551.761 474.25,537.969L332.506,537.969C301.964,537.969 277.222,562.711 277.222,593.197C277.222,623.707 301.964,648.425 332.506,648.425L551.714,648.425C531.517,638.724 513.763,624.259 500.339,605.996ZM339.726,612.097C329.321,612.097 320.815,603.657 320.815,593.197C320.815,582.762 329.321,574.322 339.726,574.322C350.174,574.322 358.65,582.762 358.65,593.197C358.65,603.657 350.174,612.097 339.726,612.097Z" style="fill:white;fill-rule:nonzero;"/>
                </g>
            </g>
            <g>
                <path d="M729.022,661.188L692.889,601.429C705.75,587.797 715.401,570.832 720.191,551.381C733.897,495.664 703.251,439.322 650.902,419.455C646.676,417.862 642.365,416.417 637.87,415.327C602.693,406.668 567.319,415.767 540.961,436.773C532.877,443.203 525.663,450.736 519.551,459.261C511.492,470.529 505.343,483.39 501.84,497.648C495.777,522.242 498.485,546.972 507.793,568.639C511.198,576.601 515.436,584.17 520.556,591.14C535.597,611.607 557.607,627.15 584.149,633.679C606.661,639.215 629.296,637.512 649.58,630.066L664.903,655.42L684.635,688.049C688.322,694.161 694.189,698.216 700.631,699.795C707.074,701.388 714.129,700.519 720.265,696.795C732.525,689.395 736.444,673.449 729.022,661.188ZM701.708,546.826C693.906,578.499 670.72,602.36 642.071,612.514C625.45,618.405 607.004,619.728 588.68,615.196C579.273,612.893 570.577,609.231 562.714,604.467C551.249,597.534 541.671,588.237 534.249,577.483C519.6,556.244 513.672,529.139 520.31,502.18C526.214,478.173 541.01,458.673 560.313,446.205C581.184,432.683 607.322,427.415 633.313,433.786C683.335,446.107 714.018,496.816 701.708,546.826ZM669.801,526.162C670.205,526.162 670.671,526.137 671.087,526.039C674.125,525.304 676.011,522.266 675.301,519.205C669.74,495.762 653.205,476.532 631.427,467.321C628.536,466.096 625.229,467.444 624.005,470.31C622.78,473.2 624.14,476.507 626.994,477.733C645.514,485.547 659.611,501.911 664.303,521.827C664.902,524.422 667.253,526.162 669.801,526.162ZM671.871,532.31C668.76,532.31 666.237,534.859 666.237,537.969C666.237,541.092 668.76,543.616 671.871,543.616C675.007,543.616 677.542,541.093 677.542,537.969C677.542,534.859 675.007,532.31 671.871,532.31Z" style="fill:rgb(44,147,230);fill-rule:nonzero;"/>
            </g>
        </g>
    </g>
    <defs>
        <linearGradient id="_Linear1" x1="0" y1="0" x2="1" y2="0" gradientUnits="userSpaceOnUse" gradientTransform="matrix(60.3871,60.3871,-60.3871,60.3871,12.8064,12.8066)"><stop offset="0" style="stop-color:rgb(50,149,230);stop-opacity:1"/><stop offset="0.01" style="stop-color:rgb(30,155,255);stop-opacity:1"/><stop offset="1" style="stop-color:rgb(0,200,222);stop-opacity:1"/></linearGradient>
    </defs>
</svg>
